<svg xmlns="http://www.w3.org/2000/svg" xmlns:xlink="http://www.w3.org/1999/xlink" version="1.1" x="0px" y="0px" viewBox="0 0 100 125" style="enable-background:new 0 0 100 100;" xml:space="preserve"><path fill="#735123" class="st0" d="M35.8,39.1c0.4,0.5,0.8,0.9,1.2,1.2c0.4,0.3,0.7,0.5,1,0.7c0.6,0.3,1,0.5,1,0.5  s-0.2-0.3-0.5-0.9c-0.2-0.3-0.3-0.6-0.6-1c-0.2-0.4-0.4-0.8-0.5-1.3c-0.3-0.9-0.4-2-0.2-3c0.1-0.5,0.3-1.1,0.6-1.7  c0.3-0.6,0.6-1.2,1-1.8c0.7-1.2,1.6-2.5,2.2-3.9c0.3-0.7,0.5-1.5,0.6-2.2c0.1-0.8,0-1.5-0.2-2.2c-0.2-0.6-0.6-1.2-0.9-1.5  c-0.3-0.4-0.7-0.6-1-0.8c-0.3-0.2-0.5-0.3-0.7-0.4c-0.2-0.1-0.3-0.1-0.3-0.1s0.2,0.3,0.5,0.9c0.1,0.3,0.3,0.6,0.4,1  c0.1,0.4,0.2,0.8,0.2,1.3c0,0.4-0.1,0.9-0.3,1.4c-0.2,0.5-0.5,1-0.8,1.5c-0.7,1.1-1.5,2.2-2.4,3.6c-0.4,0.7-0.8,1.4-1.1,2.1  c-0.3,0.8-0.5,1.6-0.6,2.4c-0.1,0.8,0.1,1.7,0.3,2.4C35.1,38,35.4,38.6,35.8,39.1z M46,39.1c0.4,0.5,0.8,0.9,1.2,1.2  c0.4,0.3,0.7,0.5,1,0.7c0.6,0.3,1,0.5,1,0.5s-0.2-0.3-0.5-0.9c-0.2-0.3-0.3-0.6-0.6-1c-0.2-0.4-0.4-0.8-0.5-1.3  c-0.3-0.9-0.4-2-0.2-3c0.1-0.5,0.3-1.1,0.6-1.7c0.3-0.6,0.6-1.2,1-1.8c0.7-1.2,1.6-2.5,2.2-3.9c0.3-0.7,0.5-1.5,0.6-2.2  c0.1-0.8,0-1.5-0.2-2.2c-0.2-0.6-0.6-1.2-0.9-1.5c-0.3-0.4-0.7-0.6-1-0.8c-0.3-0.2-0.5-0.3-0.7-0.4c-0.2-0.1-0.3-0.1-0.3-0.1  s0.2,0.3,0.5,0.9c0.1,0.3,0.3,0.6,0.4,1c0.1,0.4,0.2,0.8,0.2,1.3c0,0.4-0.1,0.9-0.3,1.4c-0.2,0.5-0.5,1-0.8,1.5  c-0.7,1.1-1.5,2.2-2.4,3.6c-0.4,0.7-0.8,1.4-1.1,2.1c-0.3,0.8-0.5,1.6-0.6,2.4c-0.1,0.8,0.1,1.7,0.3,2.4C45.3,38,45.6,38.6,46,39.1z   M56.2,39.1c0.4,0.5,0.8,0.9,1.2,1.2c0.4,0.3,0.7,0.5,1,0.7c0.6,0.3,1,0.5,1,0.5s-0.2-0.3-0.5-0.9c-0.2-0.3-0.3-0.6-0.6-1  c-0.2-0.4-0.4-0.8-0.5-1.3c-0.3-0.9-0.4-2-0.2-3c0.1-0.5,0.3-1.1,0.6-1.7c0.3-0.6,0.6-1.2,1-1.8c0.7-1.2,1.6-2.5,2.2-3.9  c0.3-0.7,0.5-1.5,0.6-2.2c0.1-0.8,0-1.5-0.2-2.2c-0.2-0.6-0.6-1.2-0.9-1.5c-0.3-0.4-0.7-0.6-1-0.8c-0.3-0.2-0.5-0.3-0.7-0.4  c-0.2-0.1-0.3-0.1-0.3-0.1s0.2,0.3,0.5,0.9c0.1,0.3,0.3,0.6,0.4,1c0.1,0.4,0.2,0.8,0.2,1.3c0,0.4-0.1,0.9-0.3,1.4  c-0.2,0.5-0.5,1-0.8,1.5c-0.7,1.1-1.5,2.2-2.4,3.6c-0.4,0.7-0.8,1.4-1.1,2.1C55.2,33.2,55,34,55,34.9c-0.1,0.8,0.1,1.7,0.3,2.4  C55.5,38,55.8,38.6,56.2,39.1z M76.8,55.2c-1.9-2.1-4.9-2.9-8-2.2c0.1-1,0.2-2,0.2-2.9c0-0.8-0.7-1.5-1.5-1.5H47.3H27.1  c-0.8,0-1.5,0.7-1.5,1.5c0.3,8.3,2.9,20.2,12.2,25H21.3c0,2.4,1.9,4.3,4.3,4.3H69c2.4,0,4.3-1.9,4.3-4.3H56.8c2.2-1.1,4-2.7,5.5-4.5  c0.9,0.1,2.1,0.2,3.3,0.2c5.4,0,9.4-2.1,11.7-6.1C79.3,61.3,79.1,57.7,76.8,55.2z M61.9,66.1c-3.2,5.5-8,8.1-14.5,8.1  S36,71.6,32.8,66.1c-2.9-4.9-3.8-10.7-4.1-14.5h18.6h18.6C65.7,55.4,64.8,61.3,61.9,66.1z M74.8,63.2c-1.7,3.1-4.8,4.6-9.1,4.6  c-0.5,0-0.9,0-1.3,0c2.1-3.5,3.4-7.6,4-11.5c2.5-0.9,4.8-0.6,6.2,0.9C75.9,58.7,76,61,74.8,63.2z"/></svg>
